<svg width="20" height="25" viewBox="0 0 20 25" fill="none" xmlns="http://www.w3.org/2000/svg">
<path d="M12.1676 6.00004C12.1676 4.76236 11.6759 3.57538 10.8007 2.70021C9.92556 1.82504 8.73857 1.33337 7.50089 1.33337C6.26322 1.33337 5.07623 1.82504 4.20106 2.70021C3.32589 3.57538 2.83423 4.76236 2.83423 6.00004" stroke="#B5B8B5" stroke-width="1.75" stroke-linecap="round" stroke-linejoin="round"/>
<path d="M9.03854 9.40794V6.42478C9.02732 6.01034 8.8548 5.61665 8.5577 5.32749C8.2606 5.03832 7.86238 4.87653 7.44779 4.87653C7.03321 4.87653 6.63499 5.03832 6.33789 5.32749C6.04079 5.61665 5.86827 6.01034 5.85704 6.42478V15.6321L4.13854 13.9334C3.95953 13.7576 3.74584 13.6211 3.5111 13.5325C3.27636 13.4439 3.02572 13.4053 2.7752 13.419C2.52468 13.4327 2.27977 13.4985 2.05611 13.6122C1.83245 13.7259 1.63494 13.885 1.47621 14.0793C1.22877 14.3837 1.0908 14.7625 1.08446 15.1547C1.07811 15.547 1.20375 15.93 1.44121 16.2423L4.62854 20.4364C5.35188 21.3884 5.71354 21.8644 6.14754 22.2343C6.81254 22.7989 7.60588 23.1909 8.46221 23.3776C9.02221 23.4989 9.62538 23.4989 10.8305 23.4989C13.1289 23.4989 14.278 23.4989 15.1927 23.1524C15.8816 22.8932 16.5083 22.4919 17.0321 21.9748C17.5558 21.4576 17.965 20.8361 18.233 20.1506C18.5842 19.2476 18.5842 18.1124 18.5842 15.8444V13.2626C18.5806 12.7649 18.4003 12.2847 18.0755 11.9075C17.7507 11.5304 17.3025 11.2809 16.8109 11.2034L16.4492 11.1451C16.3216 11.1229 16.1907 11.1288 16.0655 11.1623C15.9404 11.1957 15.824 11.256 15.7244 11.3389C15.6249 11.4218 15.5446 11.5253 15.489 11.6423C15.4335 11.7594 15.404 11.8871 15.4027 12.0166M9.03854 9.40794L9.65104 9.10578C9.94621 8.95994 10.2752 8.86661 10.596 8.94244C11.056 9.04834 11.4667 9.3064 11.7616 9.67483C12.0566 10.0433 12.2185 10.5005 12.2212 10.9724M9.03854 9.40794V12.0166M15.4027 12.0166C15.4027 10.8639 14.453 9.92828 13.2817 9.92828C12.696 9.92828 12.2212 10.3961 12.2212 10.9724M15.4027 12.0166V13.0608M12.2212 10.9724V12.0166" stroke="#B5B8B5" stroke-width="1.75" stroke-linecap="round" stroke-linejoin="round"/>
</svg>
